<?xml version="1.0" standalone="no"?>
<!DOCTYPE svg PUBLIC "-//W3C//DTD SVG 20010904//EN"
 "http://www.w3.org/TR/2001/REC-SVG-20010904/DTD/svg10.dtd">
<svg version="1.0" xmlns="http://www.w3.org/2000/svg"
 width="168.000000pt" height="256.000000pt" viewBox="0 0 168.000000 256.000000"
 preserveAspectRatio="xMidYMid meet">

<g transform="translate(0.000000,256.000000) scale(0.100000,-0.100000)"
fill="#000000" stroke="none">
<path d="M353 2490 c-136 -28 -233 -149 -250 -310 -12 -117 35 -270 111 -357
41 -47 119 -88 184 -97 l42 -6 0 72 c0 130 41 233 128 323 26 26 71 59 100 72
63 29 65 43 21 131 -64 128 -203 200 -336 172z"/>
<path d="M1173 2489 c-96 -18 -177 -79 -222 -171 -44 -87 -42 -100 21 -129
137 -64 228 -230 228 -417 l0 -54 43 7 c144 24 245 136 283 315 57 269 -118
491 -353 449z"/>
<path d="M767 2139 c-97 -15 -187 -93 -229 -198 -32 -81 -31 -241 2 -326 55
-143 140 -220 255 -232 164 -17 297 122 325 341 32 257 -131 449 -353 415z"/>
<path d="M378 1616 c-107 -38 -178 -106 -233 -221 -52 -109 -59 -161 -60 -435
l0 -245 141 -3 141 -3 6 108 c7 127 24 192 72 290 41 82 113 160 190 204 28
16 45 29 38 29 -20 0 -132 110 -159 155 -13 23 -31 63 -40 89 -18 51 -30 55
-96 32z"/>
<path d="M1174 1614 c-20 -63 -38 -102 -64 -139 -32 -47 -126 -135 -144 -135
-6 0 12 -13 40 -29 155 -89 235 -237 256 -473 l12 -129 141 3 140 3 -1 250
c-1 201 -4 263 -18 315 -50 193 -168 322 -314 346 -35 5 -43 4 -48 -12z"/>
<path d="M723 1266 c-59 -19 -104 -49 -151 -100 -79 -86 -118 -194 -129 -358
l-6 -98 376 0 377 0 0 93 c0 211 -84 373 -227 443 -66 33 -175 42 -240 20z"/>
<path d="M145 533 c13 -57 54 -111 98 -132 42 -21 56 -21 581 -21 507 0 539 1
574 19 49 25 69 49 92 110 l20 51 -686 0 -686 0 7 -27z"/>
<path d="M449 241 c29 -55 105 -118 164 -136 60 -18 350 -21 409 -5 62 18 129
70 161 128 l29 52 -391 0 -391 0 19 -39z"/>
</g>
</svg>
