<?xml version="1.0" standalone="no"?>
<!DOCTYPE svg PUBLIC "-//W3C//DTD SVG 20010904//EN"
 "http://www.w3.org/TR/2001/REC-SVG-20010904/DTD/svg10.dtd">
<svg version="1.0" xmlns="http://www.w3.org/2000/svg"
 width="1024.000000pt" height="1024.000000pt" viewBox="0 0 1024.000000 1024.000000"
 preserveAspectRatio="xMidYMid meet">

<g transform="translate(0.000000,1024.000000) scale(0.100000,-0.100000)"
fill="#000000" stroke="none">
<path d="M1242 7439 c-211 -31 -377 -171 -466 -393 -46 -115 -59 -195 -53
-341 6 -158 31 -264 92 -390 114 -237 282 -367 503 -390 66 -7 66 -8 63 46 -4
61 21 283 40 350 24 89 86 215 138 284 93 121 223 222 330 255 31 10 57 24 59
32 5 25 -44 164 -82 232 -126 225 -375 351 -624 315z"/>
<path d="M2775 7421 c-141 -40 -288 -155 -363 -283 -33 -55 -73 -162 -85 -223
-5 -30 -4 -32 46 -49 309 -107 507 -435 507 -837 l0 -109 43 0 c23 0 70 7 102
15 238 62 405 249 491 550 27 92 29 113 28 260 0 151 -2 165 -31 252 -73 220
-218 369 -412 427 -74 22 -246 20 -326 -3z"/>
<path d="M5410 6798 c-56 -16 -97 -54 -129 -121 -47 -94 -53 -173 -49 -593 4
-311 7 -378 22 -429 36 -126 101 -185 214 -192 56 -4 74 -1 112 19 92 47 140
169 140 357 l0 101 -84 0 -84 0 -4 -124 c-3 -106 -6 -127 -22 -145 -27 -30
-73 -24 -100 12 -20 28 -21 41 -24 415 -4 425 1 480 45 509 18 12 31 14 51 7
41 -14 52 -48 52 -156 l0 -98 85 0 85 0 0 93 c0 109 -24 208 -65 267 -51 73
-151 105 -245 78z"/>
<path d="M7132 6798 c-50 -17 -107 -79 -133 -144 -24 -58 -24 -64 -27 -484 -4
-452 0 -506 43 -590 28 -55 47 -73 105 -99 120 -54 252 2 301 127 18 46 23 84
27 195 l4 137 -86 0 -86 0 0 -116 c0 -138 -14 -174 -66 -174 -58 0 -67 23 -76
193 -4 84 -6 276 -5 427 2 234 5 280 20 306 27 52 74 59 106 18 18 -23 21 -41
21 -130 l0 -104 86 0 87 0 -6 123 c-8 175 -30 231 -113 290 -33 23 -55 30
-105 33 -35 2 -79 -2 -97 -8z"/>
<path d="M7721 6798 c-19 -7 -54 -30 -77 -52 -33 -32 -47 -57 -66 -116 -23
-74 -23 -82 -23 -495 0 -405 1 -422 22 -490 41 -129 127 -194 243 -183 107 11
178 84 205 214 22 103 21 845 0 929 -35 134 -98 195 -206 201 -35 2 -79 -2
-98 -8z m109 -188 c37 -20 40 -61 40 -479 0 -366 -2 -409 -18 -441 -14 -30
-22 -35 -51 -35 -25 0 -39 7 -55 28 -20 28 -21 40 -24 425 -2 218 0 412 3 431
7 37 45 81 70 81 9 0 25 -4 35 -10z"/>
<path d="M4170 6136 l0 -656 80 0 80 0 0 234 0 233 62 7 c186 22 248 126 248
421 0 213 -34 320 -118 380 -43 30 -45 30 -198 34 l-154 3 0 -656z m269 440
c36 -39 53 -211 31 -327 -14 -71 -41 -99 -97 -99 l-43 0 0 225 0 225 43 0 c33
0 49 -6 66 -24z"/>
<path d="M4730 6135 l0 -655 205 0 205 0 0 100 0 100 -120 0 -120 0 0 190 0
190 105 0 105 0 0 95 c0 83 -2 95 -17 96 -10 1 -58 2 -107 3 l-89 1 0 170 -1
170 122 3 122 3 0 94 0 95 -205 0 -205 0 0 -655z"/>
<path d="M5801 6708 c10 -46 36 -168 58 -273 22 -104 55 -262 75 -350 53 -241
59 -281 53 -331 -7 -68 -34 -98 -88 -102 l-44 -3 3 -89 3 -90 42 0 c99 0 165
36 202 110 38 76 59 168 125 545 34 193 74 421 89 508 l27 157 -90 0 -91 0
-34 -292 c-18 -161 -37 -311 -40 -333 l-8 -40 -11 40 c-6 22 -32 172 -59 333
l-48 292 -91 0 -92 0 19 -82z"/>
<path d="M6420 6136 l0 -656 80 0 80 0 1 223 c1 122 1 227 0 234 -1 7 24 14
66 18 112 12 170 54 207 150 56 146 46 469 -17 575 -53 89 -91 104 -269 108
l-148 4 0 -656z m269 445 c28 -28 33 -68 29 -234 -3 -141 -4 -148 -28 -171
-16 -16 -39 -26 -65 -28 l-40 -3 -3 228 -2 227 45 0 c31 0 51 -6 64 -19z"/>
<path d="M8140 6136 l0 -657 83 3 82 3 3 231 2 231 63 7 c85 10 136 36 170 88
45 70 59 131 64 283 9 247 -26 370 -121 430 -48 29 -53 30 -198 34 l-148 3 0
-656z m271 438 c23 -24 24 -33 27 -177 2 -93 -1 -167 -8 -190 -13 -45 -47 -70
-90 -65 l-31 3 0 223 c0 122 1 224 1 227 0 3 17 5 38 5 28 0 45 -7 63 -26z"/>
<path d="M8690 6135 l0 -656 82 3 81 3 52 255 c29 140 67 329 86 420 l34 165
3 -423 2 -423 73 4 72 3 3 652 2 652 -83 0 -83 0 -16 -77 c-10 -43 -42 -195
-73 -338 -30 -143 -62 -287 -69 -320 -13 -54 -14 -22 -13 338 l2 397 -77 0
-78 0 0 -655z"/>
<path d="M9460 6781 c-82 -25 -127 -71 -157 -161 -15 -45 -18 -87 -18 -235 0
-174 1 -182 27 -237 15 -32 38 -70 52 -85 16 -16 24 -34 20 -43 -9 -23 -114
-502 -114 -523 0 -16 9 -17 82 -15 l82 3 33 160 c55 265 76 340 96 343 16 3
17 -14 17 -252 l0 -256 80 1 80 1 0 654 0 654 -127 -1 c-71 0 -139 -4 -153 -8z
m120 -401 l0 -219 -37 6 c-86 12 -103 48 -103 211 0 113 13 183 39 206 15 13
77 26 94 18 4 -2 7 -102 7 -222z"/>
<path d="M1959 6727 c-207 -70 -366 -259 -414 -492 -63 -298 34 -648 230 -834
116 -109 218 -151 371 -151 332 0 588 346 589 795 0 150 -21 249 -80 370 -75
155 -190 260 -338 310 -103 34 -260 35 -358 2z"/>
<path d="M1365 5740 c-145 -30 -265 -92 -370 -191 -157 -149 -248 -339 -297
-619 -9 -55 -13 -201 -13 -535 l0 -460 281 -3 281 -2 6 168 c4 99 15 210 26
268 68 351 247 615 513 754 l68 36 -64 42 c-89 58 -216 195 -270 293 -25 44
-59 119 -75 167 -17 48 -34 87 -38 88 -4 1 -26 -2 -48 -6z"/>
<path d="M2836 5719 c-10 -51 -64 -177 -107 -251 -52 -88 -170 -213 -254 -269
l-65 -43 82 -43 c332 -178 517 -548 518 -1035 0 -134 1 -138 23 -143 12 -3
141 -4 287 -3 l265 3 3 365 c4 530 -12 708 -81 891 -111 295 -325 498 -567
540 -30 5 -65 12 -76 14 -17 4 -23 -1 -28 -26z"/>
<path d="M1980 5035 c-251 -70 -452 -284 -535 -570 -37 -130 -48 -212 -49
-380 l-1 -150 738 -3 737 -2 0 159 c0 232 -31 383 -114 550 -90 182 -238 318
-416 380 -85 31 -277 39 -360 16z"/>
<path d="M7858 5001 c-84 -27 -130 -101 -130 -209 0 -93 16 -146 57 -187 60
-59 166 -69 237 -21 112 75 110 316 -3 397 -33 23 -118 34 -161 20z m117 -77
c13 -9 29 -32 36 -52 17 -50 17 -150 0 -189 -40 -97 -173 -78 -202 30 -12 45
-6 136 12 171 28 54 103 73 154 40z"/>
<path d="M8718 5001 c-88 -28 -132 -104 -131 -224 2 -131 56 -207 159 -223 89
-13 165 28 198 106 50 122 16 268 -75 320 -43 23 -112 33 -151 21z m122 -88
c63 -57 66 -208 5 -269 -34 -34 -103 -34 -136 0 -39 38 -52 89 -44 164 6 57
12 71 40 99 43 43 91 45 135 6z"/>
<path d="M4180 4781 l0 -221 40 0 40 0 0 100 0 101 83 -3 82 -3 3 -97 3 -98
34 0 35 0 0 220 0 220 -35 0 -35 0 0 -90 0 -90 -85 0 -84 0 -3 88 -3 87 -37 3
-38 3 0 -220z"/>
<path d="M4715 4988 c-3 -7 -36 -106 -74 -220 l-69 -208 38 0 c37 0 39 2 55
50 l17 51 76 -3 76 -3 15 -47 c14 -47 16 -48 54 -48 27 0 37 4 34 13 -3 6 -36
105 -73 219 l-69 207 -38 1 c-21 0 -40 -5 -42 -12z m42 -256 c-27 -2 -51 -2
-53 0 -1 2 9 41 24 87 l27 83 25 -84 26 -83 -49 -3z"/>
<path d="M5070 4913 c-1 -167 -27 -274 -70 -288 -18 -6 -20 -15 -20 -89 0 -45
2 -85 5 -88 3 -2 18 -3 35 0 29 4 30 6 30 58 l0 54 135 0 135 0 0 -55 0 -55
35 0 35 0 0 85 c0 84 0 85 -25 85 l-25 0 0 190 0 190 -135 0 -135 0 0 -87z
m195 -133 l0 -155 -82 -3 c-46 -2 -83 -1 -83 1 0 3 7 24 16 48 8 24 18 89 21
144 2 55 6 106 9 113 3 9 21 12 61 10 l58 -3 0 -155z"/>
<path d="M5468 4878 c-2 -68 -2 -167 0 -220 l4 -98 134 0 134 0 0 33 0 34 -97
-1 -98 -1 -3 62 -3 62 88 3 88 3 0 30 0 30 -88 3 -88 3 3 57 3 57 95 0 95 0 3
33 3 32 -134 0 -134 0 -5 -122z"/>
<path d="M5800 4991 c0 -6 25 -48 56 -92 30 -44 58 -87 60 -94 5 -11 -35 -87
-123 -237 -2 -5 15 -8 39 -8 43 0 43 0 78 66 40 75 72 114 95 114 12 0 15 -15
15 -90 l0 -90 35 0 35 0 0 90 c0 88 1 90 24 90 19 0 33 -16 75 -90 52 -90 52
-90 93 -90 48 0 49 -5 -32 130 -33 55 -60 105 -60 110 0 5 25 46 56 92 74 109
74 108 27 108 -40 0 -41 -1 -99 -95 -32 -52 -65 -95 -71 -95 -10 0 -13 26 -13
95 l0 95 -35 0 -35 0 0 -96 c0 -69 -3 -95 -12 -92 -6 2 -39 44 -73 94 -56 83
-63 89 -98 92 -21 2 -37 -1 -37 -7z"/>
<path d="M6388 4780 l-3 -220 37 0 37 0 3 98 3 97 80 0 80 0 3 -97 3 -98 34 0
35 0 0 220 0 220 -35 0 -35 0 0 -90 0 -90 -85 0 -85 0 0 90 0 90 -35 0 -34 0
-3 -220z"/>
<path d="M6851 4787 c-39 -118 -71 -217 -71 -220 0 -4 18 -7 39 -7 39 0 39 1
51 50 l12 50 78 0 78 0 13 -50 c13 -49 14 -50 51 -50 21 0 38 3 38 6 0 3 -32
102 -71 220 l-72 214 -38 0 -38 0 -70 -213z m133 38 c10 -33 20 -68 23 -77 5
-16 -2 -18 -50 -18 l-55 0 27 84 c14 47 29 82 32 78 3 -4 14 -34 23 -67z"/>
<path d="M7275 4986 c-46 -21 -67 -51 -73 -104 -5 -59 16 -105 58 -127 l29
-15 -29 -51 c-17 -28 -39 -68 -50 -90 l-20 -39 39 0 c40 0 40 0 86 85 42 77
49 85 76 85 l29 0 0 -85 0 -85 35 0 35 0 -2 218 -3 217 -90 2 c-58 2 -101 -2
-120 -11z m139 -92 c3 -26 6 -60 6 -75 0 -28 -2 -29 -44 -29 -65 0 -93 14
-101 49 -13 61 24 100 96 101 36 0 36 -1 43 -46z"/>
<path d="M8180 4780 l0 -220 40 0 40 0 0 185 0 184 33 6 c17 4 55 5 82 3 l50
-3 3 -187 2 -188 34 0 33 0 6 160 c3 88 3 187 0 220 l-6 60 -158 0 -159 0 0
-220z"/>
<path d="M9040 4780 l0 -220 40 0 40 0 0 79 0 78 66 6 c75 6 109 25 137 78 22
41 17 100 -10 138 -34 46 -78 61 -180 61 l-93 0 0 -220z m195 135 c58 -57 16
-135 -71 -135 l-44 0 0 80 0 80 45 0 c35 0 52 -6 70 -25z"/>
<path d="M9483 4978 c-11 -26 -133 -403 -133 -413 0 -3 16 -5 37 -3 34 3 37 6
50 51 l14 47 77 0 78 0 14 -50 c13 -49 14 -50 52 -50 21 0 38 3 38 7 0 3 -32
102 -71 220 l-70 213 -38 0 c-30 0 -40 -5 -48 -22z m71 -153 c10 -33 19 -68
22 -77 5 -16 -2 -18 -45 -18 -30 0 -51 4 -51 11 0 26 44 159 51 152 4 -4 14
-35 23 -68z"/>
<path d="M6325 4276 c-143 -62 -154 -336 -17 -414 59 -33 144 -31 200 5 62 41
85 102 80 214 -3 74 -8 93 -31 128 -48 72 -152 102 -232 67z m149 -83 c33 -33
48 -105 36 -179 -8 -47 -16 -65 -41 -88 -27 -24 -38 -27 -71 -23 -76 10 -113
73 -106 181 4 74 33 122 81 134 44 11 72 4 101 -25z"/>
<path d="M7265 4267 c-60 -33 -95 -108 -95 -204 0 -144 66 -224 183 -224 65 0
95 11 135 50 41 42 57 92 56 181 -1 81 -21 135 -66 177 -52 49 -146 58 -213
20z m130 -51 c52 -22 69 -56 70 -145 0 -119 -34 -171 -113 -171 -122 0 -147
258 -31 317 30 16 33 16 74 -1z"/>
<path d="M7720 4279 c-68 -27 -110 -110 -110 -218 0 -81 17 -131 59 -172 83
-83 216 -67 267 33 18 34 19 32 -23 46 -28 9 -33 8 -38 -8 -9 -27 -53 -60 -81
-60 -71 0 -104 51 -104 159 0 91 18 136 63 157 44 21 84 9 112 -33 17 -26 25
-30 50 -26 38 7 39 8 31 36 -7 29 -52 76 -84 88 -30 12 -110 10 -142 -2z"/>
<path d="M4190 4059 l0 -222 108 5 c120 5 162 20 187 68 8 16 15 43 15 60 0
31 -24 90 -38 90 -4 0 -13 4 -20 9 -11 6 -8 14 12 34 45 45 29 139 -29 165
-15 7 -71 12 -130 12 l-105 0 0 -221z m204 145 c9 -8 16 -28 16 -44 0 -23 -7
-33 -31 -45 -30 -16 -117 -18 -111 -2 1 4 2 30 2 57 l0 50 54 0 c36 0 60 -5
70 -16z m11 -189 c31 -30 31 -52 3 -82 -18 -19 -32 -23 -85 -23 l-63 0 1 65 2
65 59 0 c49 0 63 -4 83 -25z"/>
<path d="M4679 4253 c-26 -68 -129 -387 -129 -399 0 -9 12 -14 34 -14 32 0 35
3 51 49 18 55 30 60 120 51 49 -5 49 -5 64 -52 14 -47 16 -48 54 -48 27 0 38
4 35 13 -3 6 -36 105 -74 220 l-69 207 -38 0 c-32 0 -39 -4 -48 -27z m76 -153
c14 -40 25 -77 25 -82 0 -4 -25 -8 -56 -8 -48 0 -55 2 -50 18 3 9 15 48 26 85
12 38 23 67 26 65 2 -3 15 -38 29 -78z"/>
<path d="M4980 4060 l0 -220 243 2 242 3 3 218 2 217 -40 0 -40 0 0 -185 0
-185 -65 0 -65 0 0 185 0 185 -35 0 -35 0 0 -185 0 -185 -70 0 -70 0 0 185 0
185 -35 0 -35 0 0 -220z"/>
<path d="M5570 4060 l0 -220 141 0 140 0 -3 33 -3 32 -102 3 -103 3 0 65 0 66
83 -3 82 -4 3 33 3 32 -86 0 -86 0 3 58 3 57 98 3 97 3 0 29 0 30 -135 0 -135
0 0 -220z"/>
<path d="M5920 4061 l0 -220 33 2 32 2 5 185 5 185 93 3 92 3 0 29 0 30 -130
0 -130 0 0 -219z"/>
<path d="M6830 4060 l0 -220 35 0 35 0 0 79 0 79 70 4 c64 3 73 7 105 38 64
64 55 176 -17 220 -27 16 -50 20 -130 20 l-98 0 0 -220z m173 149 c30 -16 37
-28 37 -71 0 -49 -36 -78 -96 -78 l-44 0 0 80 0 80 41 0 c22 0 50 -5 62 -11z"/>
<path d="M7982 4248 c3 -31 4 -31 58 -32 l55 -1 3 -187 2 -188 35 0 35 0 2
188 3 187 63 3 c61 3 62 3 62 32 l0 30 -161 0 -160 0 3 -32z"/>
<path d="M8356 4072 c-37 -114 -70 -212 -72 -218 -3 -8 10 -11 36 -10 40 1 41
2 52 44 6 23 13 44 17 46 3 2 39 6 80 7 l74 4 17 -50 c15 -46 19 -49 53 -53
20 -2 37 0 37 5 0 4 -32 103 -72 220 l-72 213 -41 0 -40 0 -69 -208z m140 33
c15 -47 24 -88 21 -91 -2 -3 -27 -4 -54 -2 l-50 3 25 88 c14 48 26 87 28 87 2
0 15 -38 30 -85z"/>
<path d="M792 3603 c5 -21 27 -75 49 -120 56 -118 140 -180 270 -203 44 -8
373 -10 1074 -8 l1010 3 50 23 c131 60 201 151 239 315 l6 27 -1354 0 -1354 0
10 -37z"/>
<path d="M1370 3074 c0 -3 16 -37 36 -75 66 -125 194 -227 343 -273 60 -18 95
-20 386 -20 281 -1 328 1 385 17 142 40 261 129 329 246 22 36 42 76 46 89 l6
22 -765 0 c-421 0 -766 -3 -766 -6z"/>
</g>
</svg>
